<?xml version="1.0" standalone="no"?>
<!DOCTYPE svg PUBLIC "-//W3C//DTD SVG 20010904//EN"
 "http://www.w3.org/TR/2001/REC-SVG-20010904/DTD/svg10.dtd">
<svg version="1.0" xmlns="http://www.w3.org/2000/svg" viewBox="0 0 1080.000000 1527.000000"
 preserveAspectRatio="xMidYMid meet">

<g transform="translate(0.000000,1527.000000) scale(0.100000,-0.100000)"
fill="#dbdbdb" stroke="none">
<path d="M5335 13569 c-262 -16 -427 -36 -530 -63 -27 -8 -57 -14 -65 -14 -15
-1 -64 -10 -163 -31 -26 -6 -55 -14 -65 -19 -9 -5 -35 -13 -57 -16 -43 -8
-179 -50 -233 -72 -18 -8 -39 -14 -47 -14 -8 0 -15 -4 -15 -10 0 -5 -12 -10
-26 -10 -14 0 -49 -9 -77 -21 -138 -56 -245 -101 -272 -116 -40 -22 -46 -25
-145 -72 -139 -67 -332 -174 -373 -208 -16 -13 -33 -23 -38 -23 -9 0 -187
-117 -199 -131 -3 -3 -43 -32 -90 -64 -47 -32 -89 -64 -93 -72 -4 -7 -13 -13
-20 -13 -7 0 -60 -43 -119 -95 -59 -52 -110 -95 -114 -95 -21 0 -437 -421
-544 -550 -25 -30 -60 -70 -78 -88 -18 -19 -37 -43 -42 -52 -8 -16 -46 -65
-100 -130 -12 -14 -43 -56 -70 -95 -27 -38 -60 -83 -73 -98 -13 -15 -30 -40
-38 -55 -8 -15 -16 -29 -19 -32 -5 -5 -34 -50 -83 -127 -15 -24 -27 -49 -27
-57 0 -8 -6 -19 -14 -23 -15 -9 -18 -13 -124 -198 -39 -70 -72 -133 -72 -141
0 -8 -5 -14 -10 -14 -6 0 -15 -11 -20 -26 -18 -46 -65 -139 -72 -142 -5 -2 -8
-12 -8 -22 0 -10 -4 -22 -10 -25 -5 -3 -10 -14 -10 -24 0 -10 -6 -24 -14 -30
-8 -7 -18 -26 -21 -42 -4 -16 -11 -29 -16 -29 -5 0 -9 -9 -9 -20 0 -11 -4 -20
-10 -20 -5 0 -10 -6 -10 -13 0 -7 -13 -39 -30 -72 -16 -33 -30 -70 -30 -82 0
-13 -4 -23 -10 -23 -5 0 -10 -5 -10 -11 0 -6 -6 -25 -14 -42 -8 -18 -22 -54
-31 -82 -9 -27 -23 -60 -31 -72 -8 -12 -14 -31 -14 -41 0 -10 -3 -22 -7 -25
-9 -10 -53 -136 -60 -172 -3 -16 -9 -32 -12 -35 -4 -3 -17 -43 -30 -90 -13
-47 -27 -89 -32 -94 -4 -5 -5 -14 -2 -22 2 -7 -2 -26 -11 -41 -8 -15 -25 -66
-36 -113 -12 -47 -30 -121 -41 -165 -11 -44 -24 -88 -29 -97 -6 -10 -10 -38
-10 -62 0 -25 -5 -48 -11 -51 -5 -4 -8 -12 -6 -18 2 -7 0 -25 -5 -42 -5 -16
-19 -95 -33 -175 -33 -202 -36 -220 -40 -260 -1 -19 -5 -42 -8 -50 -3 -8 -5
-28 -5 -45 1 -16 -4 -59 -10 -95 -18 -99 -43 -521 -44 -740 -1 -357 9 -574 37
-815 2 -16 6 -57 10 -90 3 -33 7 -78 10 -100 7 -72 32 -227 60 -370 14 -77 28
-154 30 -172 2 -18 6 -37 9 -42 4 -5 11 -36 17 -68 6 -32 14 -71 19 -88 5 -16
17 -61 26 -99 18 -80 66 -238 93 -311 10 -27 24 -70 31 -95 22 -79 100 -285
192 -510 48 -116 172 -369 263 -535 21 -38 45 -83 53 -100 8 -16 39 -66 67
-110 28 -44 65 -101 81 -127 260 -416 631 -845 1022 -1182 95 -81 172 -152
172 -157 0 -10 94 -88 171 -142 95 -67 281 -187 288 -187 4 0 25 -13 47 -30
21 -16 44 -30 50 -30 6 0 23 -9 38 -21 15 -12 53 -34 84 -50 31 -16 64 -33 72
-38 60 -34 228 -111 243 -111 9 0 34 -10 55 -23 20 -12 69 -33 107 -45 39 -13
79 -27 90 -32 50 -23 136 -53 200 -70 39 -10 102 -28 140 -39 39 -12 120 -32
180 -45 183 -40 183 -40 265 -50 25 -3 61 -8 80 -11 19 -3 58 -8 85 -11 28 -3
64 -7 80 -9 177 -19 471 -20 685 0 25 2 77 6 115 10 39 3 81 7 95 9 14 2 61 9
105 15 164 22 457 94 650 161 28 9 75 25 105 35 30 10 59 22 65 26 5 5 15 9
23 9 35 0 497 216 580 271 24 16 47 29 51 29 4 0 36 18 70 40 34 22 64 40 66
40 6 0 179 111 214 137 13 10 36 27 51 38 42 31 96 73 198 155 51 41 106 84
121 95 70 52 381 347 381 362 0 3 36 40 80 82 44 42 80 80 80 84 0 4 26 34 57
68 32 33 62 68 67 77 5 10 25 35 45 57 33 37 64 75 117 143 36 47 84 123 84
132 0 5 11 17 25 26 14 9 25 25 25 35 0 10 6 22 13 26 19 11 118 156 137 201
5 12 13 22 18 22 4 0 20 27 35 60 15 33 39 72 52 86 14 15 25 34 25 44 0 9 19
45 43 81 44 66 93 157 118 219 7 19 20 42 27 51 8 9 29 50 47 91 18 42 51 114
74 160 22 47 41 92 41 99 0 8 7 24 15 35 8 12 24 48 36 80 11 33 29 78 40 101
10 24 19 47 19 53 0 6 4 18 9 28 19 35 51 125 51 141 0 10 4 21 8 27 8 8 18
38 53 159 4 17 26 89 48 160 73 236 187 757 211 965 4 36 17 139 28 230 56
453 71 1147 33 1515 -5 55 -13 138 -17 185 -3 47 -10 96 -15 109 -5 13 -12 49
-14 80 -12 135 -32 262 -50 313 -8 24 -15 66 -15 93 0 28 -6 61 -13 75 -7 14
-14 41 -15 61 -4 61 -30 169 -46 194 -9 13 -13 30 -10 38 5 13 -16 99 -62 257
-18 59 -24 76 -48 131 -8 20 -20 59 -26 87 -6 28 -20 61 -31 73 -11 13 -19 37
-19 58 0 20 -7 45 -15 55 -8 11 -15 28 -15 38 0 10 -13 45 -30 78 -16 33 -30
66 -30 74 0 8 -9 31 -20 53 -25 50 -56 122 -65 153 -4 14 -15 34 -25 45 -10
11 -23 38 -30 60 -18 56 -18 57 -39 90 -11 17 -39 68 -62 115 -24 47 -47 87
-51 88 -5 2 -8 9 -8 16 0 20 -30 76 -41 76 -5 0 -9 6 -9 14 0 8 -3 16 -7 18
-12 5 -53 85 -53 101 0 8 -7 17 -15 21 -8 3 -15 12 -15 21 0 8 -4 15 -10 15
-5 0 -10 7 -10 15 0 20 -29 66 -52 83 -10 7 -18 22 -18 33 0 11 -7 22 -15 25
-8 4 -15 12 -15 18 0 7 -11 22 -25 34 -14 12 -25 31 -25 42 0 11 -7 20 -15 20
-8 0 -15 7 -15 15 0 8 -9 25 -20 38 -32 35 -43 50 -74 95 -16 23 -32 42 -36
42 -4 0 -12 11 -18 25 -7 14 -17 31 -22 38 -6 7 -20 23 -31 37 -11 14 -36 42
-55 62 -19 20 -34 40 -34 44 0 4 -11 19 -25 33 -13 14 -44 49 -69 76 -83 93
-101 112 -128 130 -16 9 -28 23 -28 30 0 12 -61 71 -129 124 -17 14 -33 33
-37 43 -3 10 -11 18 -17 18 -7 0 -25 14 -41 30 -16 17 -33 30 -37 30 -3 0 -9
8 -12 19 -2 10 -18 24 -36 32 -17 8 -31 18 -31 23 0 11 -61 64 -82 72 -10 3
-18 10 -18 15 0 5 -5 9 -11 9 -6 0 -28 15 -49 33 -70 61 -97 82 -131 101 -19
10 -39 25 -46 34 -14 16 -40 33 -93 58 -19 9 -45 27 -57 40 -12 13 -28 24 -36
24 -7 0 -22 8 -33 18 -10 9 -37 26 -59 37 -22 11 -49 27 -60 36 -11 9 -36 22
-55 29 -19 8 -37 17 -40 20 -3 4 -37 23 -76 42 -39 20 -79 40 -90 46 -55 30
-147 72 -156 72 -5 0 -42 15 -81 33 -109 51 -178 78 -222 90 -22 5 -49 13 -60
18 -39 17 -80 31 -110 39 -16 5 -66 18 -110 30 -44 12 -90 23 -102 23 -12 1
-25 5 -29 10 -4 4 -19 7 -32 7 -14 0 -60 9 -101 19 -118 30 -179 41 -222 41
-22 0 -47 4 -57 9 -47 25 -536 44 -757 30z m315 -129 c85 -1 209 -8 275 -17
66 -8 144 -17 174 -19 29 -2 56 -6 60 -8 4 -3 61 -14 127 -25 66 -11 179 -36
250 -56 71 -20 147 -41 169 -46 22 -5 63 -18 90 -28 96 -36 220 -83 240 -91
11 -4 40 -16 65 -25 78 -30 412 -197 464 -232 28 -18 54 -33 58 -33 4 0 36
-19 71 -43 34 -24 69 -46 77 -49 13 -5 172 -119 210 -151 8 -7 32 -23 53 -36
22 -13 49 -33 61 -45 23 -22 45 -41 141 -120 33 -28 66 -55 72 -61 7 -5 24
-19 39 -30 14 -11 34 -28 43 -39 9 -10 29 -30 45 -45 74 -65 225 -222 230
-239 4 -10 16 -24 29 -31 12 -6 33 -27 46 -46 13 -19 29 -35 35 -35 6 0 20
-16 30 -35 10 -19 27 -37 37 -40 11 -4 19 -12 19 -18 0 -13 97 -139 123 -160
8 -7 25 -30 37 -52 13 -22 30 -44 37 -48 7 -4 13 -14 13 -21 0 -7 9 -21 20
-31 11 -10 20 -24 20 -30 0 -7 7 -15 15 -19 8 -3 15 -11 15 -19 0 -7 11 -24
25 -37 14 -13 25 -28 25 -34 0 -6 15 -33 33 -61 100 -150 117 -175 117 -180 0
-3 8 -15 18 -25 10 -11 42 -66 71 -122 30 -57 57 -107 61 -113 13 -15 100
-191 100 -200 0 -4 14 -30 30 -57 17 -26 30 -53 30 -59 0 -10 21 -58 71 -165
16 -34 29 -66 29 -71 0 -5 9 -28 20 -51 11 -22 20 -47 20 -55 0 -8 11 -35 25
-61 14 -26 25 -54 25 -62 0 -9 7 -28 15 -42 16 -31 89 -249 100 -302 4 -19 17
-69 30 -110 13 -41 26 -91 30 -110 3 -19 12 -51 20 -70 7 -19 21 -69 30 -110
9 -41 20 -91 26 -110 19 -66 95 -494 105 -585 45 -434 55 -610 54 -915 -2
-564 -45 -948 -175 -1550 -9 -41 -32 -131 -51 -200 -19 -69 -44 -159 -55 -200
-11 -41 -26 -88 -33 -105 -16 -35 -40 -105 -54 -155 -6 -19 -29 -82 -51 -140
-22 -58 -41 -109 -41 -114 0 -8 -15 -43 -66 -152 -13 -28 -24 -58 -24 -65 0
-8 -4 -19 -8 -25 -5 -5 -25 -47 -45 -94 -31 -74 -98 -209 -185 -372 -13 -27
-28 -48 -33 -48 -5 0 -9 -5 -9 -11 0 -18 -70 -159 -79 -159 -4 0 -17 -19 -27
-42 -10 -24 -33 -61 -50 -83 -16 -22 -41 -62 -54 -88 -13 -26 -27 -47 -32 -47
-5 0 -14 -13 -19 -30 -6 -16 -15 -30 -19 -30 -5 0 -22 -24 -39 -53 -17 -29
-40 -62 -51 -72 -11 -10 -20 -24 -20 -31 0 -12 -34 -57 -113 -148 -23 -27 -58
-72 -77 -101 -20 -28 -49 -65 -65 -82 -31 -32 -47 -51 -105 -127 -19 -25 -39
-46 -45 -46 -5 0 -23 -19 -40 -41 -16 -23 -38 -45 -47 -50 -10 -5 -18 -15 -18
-21 0 -14 -40 -58 -53 -58 -5 0 -53 -44 -107 -97 -54 -54 -122 -118 -151 -143
-29 -25 -63 -55 -76 -67 -13 -13 -28 -23 -33 -23 -4 0 -10 -4 -12 -9 -14 -37
-458 -356 -657 -473 -25 -15 -57 -33 -71 -41 -14 -8 -47 -27 -75 -41 -27 -14
-57 -30 -65 -35 -8 -6 -69 -35 -135 -66 -209 -98 -191 -90 -322 -140 -40 -16
-73 -32 -73 -37 0 -4 -13 -8 -29 -8 -17 0 -33 -4 -36 -10 -3 -5 -16 -10 -28
-10 -12 -1 -53 -12 -92 -26 -38 -13 -80 -26 -92 -28 -12 -2 -35 -8 -50 -14
-15 -6 -48 -16 -73 -22 -25 -6 -63 -16 -85 -21 -46 -12 -65 -15 -155 -29 -36
-6 -76 -14 -90 -20 -14 -5 -46 -11 -72 -14 -25 -2 -52 -8 -60 -12 -7 -5 -40
-9 -73 -10 -33 -1 -118 -7 -190 -14 -154 -13 -467 -14 -580 -2 -44 5 -87 6
-94 1 -8 -4 -26 -3 -38 2 -23 9 -68 15 -163 25 -25 2 -52 7 -60 11 -8 3 -24 7
-35 8 -25 3 -162 30 -237 48 -32 8 -60 12 -62 9 -3 -3 -12 1 -20 7 -8 7 -19
10 -25 7 -9 -6 -150 33 -196 54 -11 5 -51 19 -90 31 -91 28 -100 31 -165 63
-30 14 -62 26 -70 26 -8 0 -60 23 -115 50 -55 27 -104 50 -109 50 -5 0 -25 10
-45 23 -20 12 -43 22 -51 23 -8 1 -40 17 -70 36 -30 19 -65 38 -76 42 -12 4
-32 15 -44 26 -13 11 -31 20 -40 20 -9 0 -25 10 -36 21 -10 12 -39 31 -64 42
-24 11 -87 52 -140 90 -52 39 -127 95 -167 124 -40 29 -80 53 -90 53 -38 0
-340 275 -523 475 -189 207 -422 503 -486 616 -6 11 -20 30 -31 42 -11 12 -23
30 -26 39 -3 10 -26 48 -50 85 -133 204 -284 491 -401 763 -20 47 -43 99 -51
115 -33 70 -65 148 -65 159 0 7 -9 31 -20 55 -12 23 -31 77 -44 119 -27 87
-45 139 -57 164 -5 10 -9 23 -9 30 0 8 -12 49 -26 93 -14 44 -29 98 -34 120
-5 22 -19 74 -31 115 -12 41 -23 86 -24 100 -2 14 -10 45 -19 70 -9 25 -16 58
-16 73 0 16 -4 36 -9 45 -5 9 -11 31 -14 47 -6 31 -37 193 -62 325 -8 42 -15
99 -15 127 0 29 -5 55 -10 58 -6 4 -8 14 -6 23 3 10 1 44 -5 77 -6 33 -12 85
-14 115 -1 30 -5 82 -9 115 -3 33 -8 98 -11 145 -3 47 -8 114 -11 150 -19 219
6 825 46 1140 6 41 12 100 15 130 3 30 23 156 45 280 51 284 46 260 58 295 6
17 21 75 33 130 12 55 30 132 41 170 11 39 24 89 29 113 4 23 12 50 17 60 5 9
13 35 17 57 3 21 15 55 24 75 10 19 28 71 40 115 12 44 28 91 35 105 7 14 18
45 26 70 12 43 18 58 56 148 9 20 19 46 24 57 15 39 49 121 79 188 17 38 31
71 31 75 0 18 241 484 265 512 7 8 16 25 19 37 4 11 13 27 21 33 8 7 15 21 15
31 0 11 4 19 9 19 5 0 16 17 25 38 9 20 30 55 47 77 16 22 55 78 86 125 30 47
59 87 64 88 5 2 9 10 9 18 0 8 9 22 21 32 11 9 27 31 35 49 9 18 26 43 38 56
12 13 42 52 68 88 25 35 59 78 75 94 17 17 34 37 39 46 10 20 78 101 114 138
13 14 45 51 71 81 106 126 429 436 545 522 40 30 61 48 89 76 12 12 25 22 29
22 4 0 13 6 20 13 39 37 398 287 413 287 3 0 20 10 37 23 84 62 442 242 624
314 37 14 72 29 77 33 6 4 24 11 42 15 18 3 50 15 72 26 22 10 45 19 50 19 6
0 43 11 83 24 290 95 679 166 1003 182 66 4 122 8 125 11 2 2 14 2 25 -1 11
-3 90 -6 175 -6z"/>
<path d="M5965 13132 c-3 -16 -1 -51 5 -78 6 -27 15 -128 20 -224 10 -180 11
-275 3 -230 -19 113 -71 240 -99 240 -31 0 -31 -32 1 -395 17 -192 21 -359 12
-415 -6 -30 -4 -29 10 10 22 59 25 296 7 480 -23 244 -16 247 42 14 37 -149
57 -204 74 -204 21 0 26 69 16 216 -4 55 -11 125 -15 155 -13 79 3 81 23 2 10
-37 26 -98 37 -134 10 -36 20 -75 22 -85 2 -10 8 -28 12 -39 33 -81 45 -119
45 -140 0 -41 22 -29 85 44 89 103 114 109 66 15 -16 -33 -41 -99 -55 -149
-15 -49 -28 -96 -31 -102 -2 -8 4 -13 14 -13 15 0 24 16 41 73 34 115 124 287
186 355 41 46 54 68 54 91 0 17 -5 31 -10 31 -6 0 -29 -17 -53 -38 -23 -21
-68 -58 -100 -81 -32 -23 -82 -67 -111 -97 -43 -43 -55 -51 -59 -36 -3 9 -16
49 -30 87 -30 83 -65 207 -113 405 -19 80 -42 173 -50 208 -17 67 -38 82 -49
34z"/>
<path d="M5125 13083 c-52 -52 -116 -143 -161 -228 -46 -85 -64 -98 -64 -47
-1 51 -26 137 -40 137 -8 0 -19 -19 -26 -45 -13 -50 -12 -50 -45 63 -33 117
-46 117 -65 -1 -12 -71 -20 -341 -10 -331 3 2 10 69 16 147 15 195 21 205 49
87 42 -176 71 -218 81 -119 4 41 6 45 12 24 4 -14 8 -34 8 -45 0 -11 7 -31 16
-43 15 -22 17 -20 70 85 51 101 150 250 160 240 2 -2 -11 -51 -30 -108 -41
-121 -79 -287 -72 -306 10 -26 24 -12 31 30 10 64 50 209 90 329 50 153 44
194 -20 131z"/>
<path d="M7354 12708 c-13 -40 -18 -97 -20 -223 -2 -167 -2 -168 6 -55 10 127
28 238 40 245 5 3 12 -21 15 -52 4 -32 13 -101 21 -153 8 -52 14 -98 14 -102
0 -5 8 -8 19 -8 14 0 22 11 30 43 21 82 31 77 31 -15 0 -70 3 -88 14 -88 10 0
17 17 21 55 7 55 0 215 -11 261 -11 44 -33 26 -53 -45 -30 -106 -32 -105 -52
19 -28 182 -46 209 -75 118z"/>
<path d="M3545 12688 c-4 -18 -11 -39 -16 -48 -17 -31 -69 -159 -69 -169 0 -6
-13 -41 -29 -78 -16 -38 -43 -104 -61 -148 -18 -44 -37 -91 -43 -103 l-11 -24
-7 24 c-9 36 -28 68 -40 68 -5 0 -18 -19 -29 -42 l-19 -43 0 40 c-2 94 -33
113 -58 35 -7 -25 -18 -54 -23 -65 -22 -48 -51 -154 -56 -200 l-4 -50 13 40
c8 22 30 71 50 110 l37 69 0 -71 c0 -126 31 -161 60 -65 16 54 30 77 30 48 0
-10 5 -26 11 -37 9 -17 13 -18 26 -7 25 21 98 187 158 363 15 44 34 89 42 100
14 19 15 18 10 -12 -10 -52 -20 -418 -13 -446 11 -44 32 -31 56 36 37 103 46
107 46 24 -1 -57 2 -72 14 -72 25 0 51 199 34 263 -10 37 -36 22 -77 -48 l-39
-65 7 140 c4 77 13 180 21 230 8 49 17 107 21 127 13 81 -26 151 -42 76z"/>
<path d="M4860 12253 c0 -15 9 -61 21 -102 50 -182 112 -396 121 -420 6 -14
14 -39 18 -56 5 -16 28 -88 53 -160 59 -168 101 -330 127 -480 21 -128 39
-303 31 -311 -3 -2 -20 37 -38 87 -18 51 -37 97 -42 102 -33 33 -40 -53 -16
-223 16 -113 68 -357 80 -368 10 -10 -4 149 -20 233 -7 39 -16 95 -19 125 l-6
55 14 -35 c7 -19 21 -56 30 -81 9 -25 23 -54 31 -65 15 -19 15 -19 30 1 9 11
13 31 11 45 -3 14 -8 70 -11 125 -13 202 -51 423 -111 645 -39 143 -11 106 49
-65 19 -55 53 -146 75 -202 61 -153 131 -396 147 -513 12 -82 25 -120 42 -120
13 0 14 9 9 54 -6 41 -3 62 8 83 24 43 104 129 112 120 4 -4 2 -42 -4 -85 -41
-276 -43 -290 -33 -331 11 -50 15 -55 36 -48 9 4 15 19 15 37 0 16 7 71 16
121 32 186 34 346 5 421 -9 25 -13 27 -33 17 -24 -11 -67 -72 -89 -124 -6 -16
-19 -46 -27 -65 l-16 -35 -12 40 c-7 22 -13 52 -13 67 -1 15 -6 39 -12 55 -6
15 -22 64 -35 108 -12 44 -37 118 -54 165 -18 47 -42 114 -55 150 -13 36 -31
83 -39 105 -27 74 -141 354 -172 420 -40 87 -82 198 -137 358 -37 110 -65 177
-74 177 -7 0 -13 -11 -13 -27z m279 -768 c0 -5 -4 -3 -9 5 -5 8 -9 22 -9 30 0
16 17 -16 18 -35z"/>
<path d="M7019 12254 c-35 -7 -78 -16 -95 -22 -160 -51 -308 -189 -395 -367
-23 -47 -24 -59 -23 -215 2 -138 5 -175 23 -226 11 -34 27 -90 34 -125 8 -35
22 -89 31 -119 10 -30 21 -73 26 -95 4 -22 22 -78 40 -125 56 -153 85 -246 82
-262 -1 -4 5 -22 13 -41 7 -18 26 -85 40 -148 15 -63 33 -134 40 -159 16 -51
38 -155 40 -185 0 -11 4 -30 8 -42 6 -15 1 -33 -15 -60 -67 -110 -103 -219
-134 -393 -3 -19 -13 -55 -22 -80 -12 -36 -16 -89 -16 -260 0 -120 5 -240 12
-272 14 -72 121 -297 168 -354 44 -55 72 -63 112 -34 17 12 35 19 40 16 6 -4
20 14 32 41 l21 48 -22 39 c-22 39 -22 42 -15 310 11 369 9 563 -4 633 -13 70
-22 133 -22 153 0 41 -34 206 -84 409 -31 124 -57 230 -59 235 -1 6 -5 28 -10
49 -4 20 -11 40 -16 43 -5 3 -9 14 -9 25 0 11 -11 48 -23 82 -21 55 -49 142
-93 287 -8 25 -28 86 -45 135 -17 50 -37 119 -44 155 -7 36 -18 88 -25 115
-13 55 -14 268 -1 294 5 9 11 32 15 52 4 21 13 42 21 49 8 7 15 18 15 24 0 22
131 155 193 195 115 76 252 104 435 88 75 -6 109 -15 168 -42 42 -19 90 -46
108 -60 18 -14 36 -25 40 -25 7 0 22 -11 141 -105 28 -22 66 -51 85 -65 50
-36 253 -223 331 -305 173 -181 378 -456 435 -583 94 -209 164 -382 211 -522
20 -58 39 -112 44 -121 6 -13 3 -18 -11 -22 -29 -7 -25 -42 8 -66 15 -12 32
-25 39 -31 10 -9 39 -116 35 -132 -1 -4 2 -18 7 -30 15 -41 68 -431 76 -568 1
-19 10 -75 20 -125 20 -98 22 -122 28 -330 5 -149 13 -184 55 -227 48 -51 73
-35 152 99 79 135 121 228 135 305 20 105 24 124 39 171 24 73 39 176 39 275
2 127 -25 210 -93 290 -81 96 -195 212 -209 212 -7 0 -31 20 -55 43 -40 41
-127 107 -141 107 -20 0 -71 105 -56 114 4 3 25 1 47 -4 22 -5 59 -12 81 -14
43 -6 164 -43 223 -69 19 -9 47 -18 63 -22 15 -3 36 -14 46 -24 9 -9 25 -20
34 -24 9 -3 17 -11 17 -17 0 -5 6 -10 13 -10 12 -1 43 -34 135 -144 39 -46 55
-77 76 -145 24 -78 26 -102 26 -247 0 -129 -4 -172 -19 -220 -10 -32 -29 -106
-41 -164 -12 -58 -28 -118 -35 -135 -8 -16 -17 -46 -21 -65 -3 -19 -12 -48
-19 -65 -20 -48 -35 -100 -35 -121 0 -11 -13 -44 -28 -74 -16 -30 -32 -73 -36
-95 -10 -51 -32 -116 -63 -185 -43 -95 -47 -102 -70 -113 -13 -6 -23 -14 -23
-19 0 -8 -94 -103 -133 -134 -7 -7 -22 -23 -33 -36 -10 -13 -45 -43 -77 -67
-90 -66 -91 -70 -83 -362 7 -265 -4 -467 -29 -526 -8 -20 -17 -70 -19 -112 -2
-42 -6 -83 -9 -91 -3 -8 -11 -86 -16 -172 -6 -87 -15 -188 -21 -225 -5 -38
-16 -129 -25 -203 -9 -74 -23 -173 -31 -220 -8 -47 -17 -164 -19 -260 -5 -181
-19 -341 -37 -420 -5 -25 -11 -153 -13 -285 -2 -132 -7 -308 -10 -392 -6 -131
-5 -158 10 -197 11 -29 24 -46 34 -46 34 0 134 130 210 275 18 33 36 64 42 69
5 6 9 18 9 27 0 9 6 22 14 28 8 7 26 35 40 64 69 136 195 368 229 420 20 32
37 64 37 72 0 8 12 27 28 43 15 16 40 45 56 66 28 35 29 36 48 19 17 -16 19
-28 15 -98 -6 -118 -41 -293 -68 -347 -5 -10 -9 -26 -9 -35 0 -10 -11 -40 -25
-68 -13 -27 -25 -58 -25 -68 0 -9 -4 -25 -9 -35 -5 -9 -33 -66 -61 -127 -29
-60 -58 -115 -66 -122 -7 -7 -16 -23 -19 -36 -9 -31 -27 -69 -41 -87 -7 -8
-40 -69 -74 -135 -34 -66 -74 -140 -89 -165 -25 -40 -80 -134 -121 -208 -82
-146 -126 -192 -226 -238 -41 -18 -97 -36 -126 -40 -29 -4 -67 -13 -85 -21
-41 -16 -117 -17 -130 0 -6 6 -13 71 -16 142 -4 72 -11 159 -17 195 -6 36 -15
94 -21 130 -5 37 -9 180 -8 320 7 697 2 802 -51 1007 -30 116 -105 232 -163
252 -62 22 -98 6 -110 -49 -5 -23 -18 -62 -38 -115 -8 -23 -23 -99 -44 -230
-44 -267 -106 -613 -114 -630 -14 -31 -41 -122 -41 -139 0 -9 -3 -16 -8 -16
-4 0 -18 -34 -31 -74 -12 -41 -29 -80 -37 -87 -8 -6 -14 -19 -14 -29 0 -9 -3
-19 -6 -23 -11 -11 -74 -171 -74 -189 0 -9 -4 -19 -8 -22 -5 -3 -14 -31 -21
-63 -7 -32 -19 -67 -26 -79 -7 -11 -19 -39 -26 -62 -7 -23 -18 -47 -26 -53 -7
-6 -13 -17 -13 -23 0 -16 -58 -126 -80 -151 -10 -11 -21 -29 -24 -41 -3 -11
-20 -36 -36 -54 -17 -19 -30 -39 -30 -46 0 -8 -9 -18 -20 -24 -11 -6 -27 -25
-36 -43 -9 -18 -41 -57 -70 -87 -29 -30 -63 -68 -76 -85 -12 -16 -30 -36 -40
-43 -9 -7 -23 -18 -30 -25 -38 -36 -132 -86 -207 -109 -112 -35 -309 -22 -367
24 -7 5 -16 8 -20 7 -10 -2 -30 5 -91 32 -24 10 -50 19 -59 19 -8 0 -22 7 -31
15 -8 8 -18 13 -23 10 -4 -3 -13 2 -20 10 -7 8 -20 15 -30 15 -10 0 -23 6 -29
14 -7 8 -23 17 -36 20 -13 3 -58 22 -100 41 -41 19 -77 33 -79 32 -3 -1 -15 7
-28 19 -13 11 -52 40 -87 63 -73 49 -103 80 -133 136 -42 79 -44 125 -6 125
35 0 211 -63 288 -103 64 -33 156 -63 225 -72 11 -2 58 -8 105 -15 91 -12 217
-45 238 -63 7 -6 39 -21 70 -34 64 -26 143 -30 190 -10 45 19 95 93 123 182 7
22 17 44 21 49 4 6 8 17 8 26 0 8 8 31 19 50 10 20 26 69 36 110 16 72 37 135
56 172 5 10 9 25 9 33 0 22 43 169 51 175 4 3 10 28 14 55 4 28 12 61 17 75 6
14 14 50 18 80 5 30 16 96 24 145 29 164 44 409 40 650 -2 127 -6 239 -9 251
-16 72 -24 714 -10 918 7 115 33 314 75 576 8 50 10 133 6 245 -6 175 -17 238
-56 300 -11 18 -20 39 -20 47 0 8 -9 23 -20 33 -11 10 -20 25 -20 33 0 16 -68
82 -85 82 -7 0 -20 9 -29 19 -10 11 -31 23 -46 26 -16 3 -31 12 -34 20 -3 8
-22 23 -43 34 -21 10 -56 38 -78 60 -21 23 -44 41 -50 41 -6 0 -33 25 -60 56
-26 31 -61 64 -77 73 -147 90 -302 290 -353 458 -22 70 -21 381 1 472 9 36 20
70 25 75 5 6 9 19 9 30 0 11 8 38 18 60 26 57 40 99 67 191 29 102 53 172 71
212 8 17 14 36 14 42 0 6 9 30 19 54 10 23 26 63 34 88 8 26 54 111 102 190
80 134 131 199 166 211 8 3 11 9 7 13 -4 4 -22 2 -40 -4 -59 -21 -136 -81
-187 -149 -28 -37 -58 -76 -66 -87 -8 -10 -33 -67 -56 -125 -22 -58 -47 -121
-56 -140 -27 -61 -31 -74 -44 -115 -6 -22 -25 -74 -40 -116 -16 -42 -29 -85
-29 -97 0 -11 -7 -27 -15 -36 -8 -8 -15 -22 -15 -31 0 -9 -9 -33 -20 -55 -11
-21 -31 -78 -45 -126 -23 -79 -25 -104 -25 -279 -1 -225 1 -235 110 -462 92
-193 104 -208 256 -333 44 -35 100 -85 125 -110 26 -25 70 -67 98 -94 28 -27
51 -53 51 -57 0 -5 17 -17 38 -28 20 -10 46 -28 56 -40 11 -12 26 -21 34 -21
8 0 27 -11 44 -25 16 -14 36 -25 45 -25 8 0 28 -10 43 -22 15 -13 35 -27 44
-33 9 -5 29 -41 43 -80 21 -56 27 -94 31 -189 4 -117 -1 -171 -35 -335 -67
-327 -85 -627 -68 -1161 3 -96 10 -233 15 -305 12 -162 7 -515 -9 -615 -54
-338 -77 -451 -130 -625 -11 -33 -24 -80 -31 -105 -7 -25 -25 -81 -42 -125
-16 -44 -34 -98 -38 -120 -4 -22 -13 -41 -19 -43 -6 -2 -11 -15 -11 -28 0 -14
-16 -55 -35 -93 -19 -37 -35 -71 -35 -76 0 -4 -14 -21 -30 -37 -25 -23 -37
-28 -73 -25 -23 2 -58 10 -77 19 -19 8 -55 23 -80 33 -25 10 -58 23 -75 30
-27 11 -52 16 -170 29 -16 2 -57 7 -89 11 -67 8 -194 48 -239 75 -16 10 -35
16 -42 14 -7 -3 -29 4 -50 16 -20 11 -62 27 -93 34 -32 8 -70 19 -86 25 -37
15 -83 5 -96 -19 -13 -24 -13 -96 1 -162 13 -66 59 -180 76 -191 7 -4 13 -14
13 -21 0 -20 172 -156 197 -156 5 0 25 -12 44 -26 19 -14 77 -45 129 -70 52
-25 102 -49 110 -55 27 -17 179 -87 202 -94 13 -3 32 -10 43 -15 204 -84 384
-82 564 10 78 39 214 156 273 233 26 34 57 71 68 83 12 12 29 33 38 47 9 14
35 51 57 83 37 53 64 102 122 216 45 90 73 156 73 171 0 8 9 37 21 64 11 26
30 77 41 113 23 73 53 152 74 192 8 14 14 33 14 42 0 9 14 43 30 76 17 33 30
68 30 78 0 10 4 22 10 28 29 29 81 280 151 739 18 117 29 178 39 215 15 61 31
124 35 149 5 28 23 51 40 51 7 0 34 -23 59 -51 34 -37 51 -68 65 -117 40 -133
43 -188 39 -732 -3 -454 -1 -539 14 -630 9 -58 20 -166 23 -240 4 -74 14 -160
22 -190 29 -104 114 -153 198 -115 17 8 67 23 113 35 160 40 260 101 321 194
14 23 29 44 33 47 5 3 25 39 46 81 22 41 49 90 62 108 13 18 42 67 65 109 23
42 60 105 82 141 22 36 46 83 53 105 12 36 30 71 53 100 4 6 20 35 35 65 16
30 38 73 50 95 38 71 92 204 98 246 4 22 13 46 20 54 8 7 14 24 14 38 0 13 9
50 21 83 32 93 45 171 48 291 3 134 -15 205 -69 265 -30 34 -39 39 -62 33 -15
-4 -35 -18 -45 -32 -10 -14 -28 -38 -40 -53 -13 -15 -23 -34 -23 -41 -1 -17
-24 -49 -36 -49 -5 0 -14 -8 -19 -19 -49 -92 -69 -127 -74 -131 -10 -7 -54
-86 -125 -224 -93 -180 -93 -181 -110 -195 -9 -8 -16 -22 -16 -32 0 -11 -5
-19 -10 -19 -6 0 -18 -17 -27 -37 -10 -21 -25 -47 -34 -58 -9 -11 -28 -40 -42
-65 l-27 -45 4 265 c4 248 14 384 36 455 5 17 12 98 15 180 11 308 16 386 26
437 5 29 16 100 24 158 8 58 19 139 25 180 5 41 12 108 15 150 3 41 10 111 15
155 5 44 14 125 20 180 6 55 19 143 28 195 13 75 16 168 17 433 0 289 2 339
15 347 33 20 78 59 157 138 46 45 87 82 92 82 4 0 28 28 52 61 24 34 50 68 58
76 15 16 89 208 111 288 7 28 17 54 21 60 5 5 9 19 9 31 0 12 6 35 14 51 8 15
25 62 36 103 12 41 25 84 30 95 9 23 24 82 46 180 9 39 27 118 40 177 20 91
24 133 24 283 0 194 -20 362 -52 430 -48 103 -95 170 -161 233 -10 9 -30 29
-45 43 -15 15 -47 36 -72 47 -25 12 -56 27 -70 35 -57 33 -137 67 -158 67 -13
0 -36 7 -51 15 -29 14 -208 45 -266 45 -29 0 -34 5 -49 43 -9 23 -16 46 -16
49 0 4 -15 39 -34 80 -18 40 -50 111 -71 157 -63 140 -188 343 -261 421 -22
25 -52 61 -65 81 -13 20 -46 63 -74 96 -27 32 -63 76 -80 96 -16 21 -44 47
-62 58 -18 12 -33 26 -33 33 0 23 -278 266 -304 266 -3 0 -27 20 -53 45 -25
25 -52 45 -59 45 -7 0 -22 14 -34 30 -12 17 -27 30 -34 30 -7 0 -29 12 -49 28
-71 55 -165 101 -262 127 -59 16 -223 15 -316 -1z m2111 -2172 c25 -19 84 -73
131 -121 92 -93 97 -103 113 -254 7 -57 -10 -185 -26 -204 -6 -7 -12 -23 -14
-36 -2 -12 -9 -44 -15 -72 -5 -27 -16 -79 -22 -115 -11 -60 -46 -147 -82 -210
-8 -14 -20 -37 -27 -52 -18 -40 -23 -34 -20 20 2 27 -3 100 -12 162 -9 63 -16
131 -16 152 0 20 -4 39 -9 42 -10 6 -11 12 -41 281 -26 227 -47 344 -77 419
-13 33 -23 66 -23 73 0 14 45 -14 140 -85z m-2196 -311 c14 -80 18 -169 20
-453 1 -230 7 -376 15 -418 16 -87 5 -144 -30 -148 -23 -3 -29 6 -68 90 -24
51 -50 111 -58 133 -18 50 -26 320 -12 420 5 39 14 103 19 144 5 40 14 78 19
85 6 6 13 35 16 64 3 29 15 73 25 98 11 25 20 54 20 65 0 10 4 19 8 19 5 0 17
-45 26 -99z"/>
<path d="M4114 12056 c-3 -7 -1 -51 4 -96 11 -103 6 -415 -9 -575 -13 -148
-31 -266 -70 -459 -17 -81 -28 -150 -26 -153 3 -2 19 38 35 89 46 139 85 361
98 561 4 54 10 94 14 90 10 -10 40 -310 43 -423 2 -72 5 -85 20 -88 13 -3 17
3 17 27 0 17 6 50 14 73 13 38 28 94 77 288 25 100 29 79 25 -155 -3 -192 -8
-264 -25 -359 -23 -125 -24 -177 -4 -183 14 -5 16 2 38 147 29 191 34 263 31
533 -2 189 -6 271 -14 279 -19 19 -37 -9 -51 -77 -15 -70 -33 -138 -69 -253
l-27 -83 -17 128 c-10 70 -29 249 -43 396 -22 238 -34 307 -51 307 -2 0 -7 -6
-10 -14z"/>
<path d="M2825 11656 c-27 -7 -77 -26 -110 -42 -54 -26 -206 -120 -245 -151
-8 -7 -42 -32 -75 -57 -33 -25 -67 -51 -75 -58 -8 -7 -44 -37 -80 -66 -95 -78
-220 -195 -220 -205 0 -5 -18 -30 -40 -55 -23 -25 -48 -62 -57 -81 -9 -20 -32
-61 -51 -91 -19 -30 -46 -75 -60 -100 -14 -25 -36 -63 -49 -85 -13 -22 -46
-87 -75 -145 -28 -58 -55 -106 -59 -108 -5 -2 -9 -13 -9 -24 0 -10 -6 -26 -14
-33 -8 -8 -28 -49 -46 -92 -18 -43 -38 -91 -45 -108 -15 -33 -57 -154 -79
-225 -8 -25 -30 -83 -49 -130 -68 -163 -118 -355 -137 -525 -24 -210 -32 -277
-51 -408 -19 -133 -21 -206 -14 -522 3 -109 24 -283 62 -504 20 -120 13 -251
-20 -386 -13 -55 -34 -154 -47 -220 -27 -143 -59 -279 -93 -395 -27 -90 -56
-212 -81 -344 -14 -71 -14 -82 -1 -96 11 -12 13 -29 9 -61 -5 -34 -2 -48 10
-58 25 -21 35 -10 73 74 19 44 39 83 42 87 4 5 3 -27 -1 -70 -5 -42 -10 -135
-12 -207 -3 -119 -1 -132 17 -152 17 -19 47 -32 47 -20 0 2 12 41 26 88 26 85
48 172 80 309 9 41 44 165 76 275 68 228 76 254 115 387 16 54 32 100 35 103
8 9 16 -66 23 -220 4 -71 8 -148 10 -170 2 -22 9 -98 14 -170 11 -127 31 -274
51 -365 6 -25 14 -72 20 -105 15 -97 39 -204 64 -290 13 -44 36 -134 51 -200
15 -66 35 -149 46 -185 10 -36 41 -142 69 -237 27 -95 50 -183 50 -195 0 -13
27 -102 60 -198 33 -96 60 -182 60 -191 0 -10 15 -50 34 -91 51 -112 106 -254
106 -274 0 -11 14 -48 31 -84 18 -36 37 -96 44 -135 13 -73 63 -224 82 -247
18 -22 100 -190 113 -231 16 -50 8 -67 -32 -67 -23 0 -47 11 -77 35 -40 32
-251 242 -251 250 0 14 -211 284 -318 405 -28 33 -75 55 -93 44 -13 -8 11
-115 40 -178 17 -37 31 -69 31 -71 0 -2 28 -52 62 -112 34 -59 77 -137 96
-173 44 -83 142 -220 207 -288 64 -68 207 -190 293 -250 37 -26 76 -54 87 -64
23 -20 74 -56 130 -94 63 -43 169 -82 256 -95 71 -10 85 -9 118 6 21 9 44 27
50 38 49 96 26 308 -60 552 -10 28 -26 88 -34 126 -2 9 -13 46 -24 84 -12 37
-21 79 -21 94 0 14 -18 78 -39 141 -22 63 -47 144 -56 180 -9 36 -20 70 -24
75 -9 11 -29 71 -56 160 -10 33 -24 78 -31 100 -7 22 -25 85 -39 140 -37 142
-48 179 -55 190 -4 6 -28 78 -54 160 -26 83 -52 159 -56 170 -17 40 -39 122
-55 199 -9 44 -18 83 -21 87 -3 5 -7 169 -10 365 -6 386 -4 409 44 421 52 13
206 -89 239 -157 50 -104 82 -227 118 -452 15 -90 30 -172 35 -183 5 -11 15
-47 24 -80 18 -73 55 -190 97 -310 36 -102 83 -269 104 -365 7 -36 25 -105 40
-155 14 -49 27 -101 29 -115 1 -14 12 -45 23 -70 11 -25 23 -58 27 -75 9 -34
29 -84 55 -135 10 -19 22 -51 26 -70 4 -19 20 -63 36 -98 16 -35 29 -65 29
-67 0 -10 68 -144 93 -182 15 -24 27 -45 27 -48 0 -10 123 -209 159 -257 36
-50 89 -82 171 -105 59 -16 215 -16 263 1 90 33 267 184 267 230 0 8 5 18 10
21 11 7 50 88 50 105 0 5 4 18 9 28 31 61 74 208 92 319 17 96 22 508 9 623
-6 52 -20 130 -31 174 -10 43 -19 86 -19 95 0 9 -17 42 -37 73 -45 70 -100 99
-139 74 -43 -29 -125 -168 -138 -236 -4 -19 -11 -46 -16 -60 -5 -14 -20 -65
-35 -115 -100 -346 -121 -391 -199 -431 -41 -20 -49 -7 -44 68 3 44 0 76 -12
108 -49 131 -77 232 -86 315 -4 33 -10 65 -14 70 -4 6 -11 84 -14 175 -12 307
-29 439 -71 535 -7 17 -18 48 -25 70 -7 22 -16 49 -21 60 -18 42 -30 145 -54
432 -2 23 -7 48 -11 54 -4 7 -9 22 -10 33 -11 66 -27 125 -58 209 -44 117 -70
229 -101 432 -7 41 -34 190 -45 245 -39 194 -82 451 -77 457 3 2 19 -20 36
-49 17 -29 60 -96 96 -148 208 -303 264 -370 308 -370 22 0 27 4 27 26 0 14
-4 33 -9 42 -4 9 -12 35 -16 57 l-7 39 47 -43 c76 -70 115 -34 52 49 -53 71
-127 179 -127 187 0 4 12 -5 28 -19 15 -14 38 -32 52 -41 29 -20 96 -23 102
-5 8 24 -14 113 -38 157 -13 24 -24 47 -24 52 0 6 -40 78 -140 251 -8 14 -35
59 -60 100 -63 103 -107 199 -142 303 -16 50 -33 99 -38 110 -9 22 -10 27 -41
185 -45 237 -63 488 -55 805 6 270 15 347 55 500 6 22 11 56 11 75 0 20 7 61
15 92 8 31 16 72 19 90 2 18 11 58 20 88 8 30 18 66 22 80 3 14 9 34 14 45 4
11 13 40 20 65 6 25 15 59 20 75 16 53 42 159 50 205 4 25 17 99 29 165 51
277 31 577 -49 745 -45 97 -62 121 -117 178 -46 46 -76 66 -148 97 -89 38 -92
39 -230 41 -89 2 -158 -2 -190 -10z m351 -95 c134 -40 245 -137 301 -261 70
-156 72 -499 3 -770 -6 -25 -17 -72 -24 -105 -16 -75 -76 -276 -87 -290 -10
-14 -26 -77 -45 -180 -8 -44 -19 -102 -25 -130 -5 -27 -16 -81 -22 -120 -7
-38 -16 -76 -20 -82 -5 -7 -17 -64 -28 -125 -15 -88 -20 -174 -23 -388 -2
-151 0 -309 4 -350 5 -41 14 -131 20 -200 7 -69 19 -156 27 -195 8 -38 18 -94
23 -124 19 -118 134 -405 195 -486 13 -16 49 -77 80 -135 31 -58 63 -112 70
-120 7 -8 34 -56 59 -107 45 -88 59 -149 34 -141 -28 10 -129 109 -179 175
-30 40 -58 73 -62 73 -32 0 -8 -73 71 -215 29 -52 32 -62 21 -82 -11 -20 -8
-38 15 -119 15 -53 26 -98 24 -100 -5 -4 -64 74 -88 116 -18 32 -132 195 -177
253 -18 23 -33 45 -33 50 0 4 -23 58 -51 120 -28 61 -59 147 -70 189 -23 93
-50 155 -78 185 -23 24 -36 28 -45 14 -7 -11 23 -128 42 -166 17 -34 24 -70
52 -300 18 -146 46 -312 84 -503 9 -40 20 -110 26 -155 27 -198 75 -391 141
-572 19 -50 49 -228 47 -275 -5 -127 21 -278 67 -395 13 -33 30 -94 39 -136 9
-42 18 -83 21 -90 6 -17 13 -131 21 -318 3 -80 9 -152 13 -160 4 -9 6 -29 5
-46 -1 -16 5 -61 13 -100 8 -38 16 -80 18 -92 6 -41 37 -158 44 -168 4 -5 13
-44 20 -85 28 -174 77 -283 131 -295 85 -19 170 54 209 180 6 17 17 50 27 75
9 25 18 54 20 65 2 11 15 63 30 115 14 52 27 102 28 110 7 49 28 103 89 228
40 80 56 96 90 83 30 -11 31 -15 53 -146 24 -146 20 -582 -7 -714 -5 -25 -14
-71 -20 -101 -11 -60 -66 -219 -80 -234 -5 -6 -9 -18 -9 -28 0 -10 -4 -18 -9
-18 -5 0 -15 -17 -22 -37 -6 -21 -18 -42 -25 -46 -8 -4 -14 -12 -14 -18 0 -21
-107 -111 -169 -142 -60 -29 -73 -32 -156 -31 -68 0 -105 6 -152 23 -68 26
-91 50 -100 109 -4 20 -21 57 -38 82 -18 25 -36 56 -40 70 -4 14 -13 32 -20
40 -6 8 -22 38 -35 65 -22 48 -105 218 -127 260 -22 42 -76 172 -94 227 -10
31 -22 65 -28 75 -5 10 -19 63 -31 118 -22 96 -32 130 -51 167 -5 10 -9 23 -9
30 0 17 -60 239 -70 259 -4 8 -22 58 -40 110 -39 115 -77 218 -90 241 -6 10
-10 29 -10 43 0 14 -4 33 -10 43 -5 9 -14 44 -20 77 -54 311 -99 486 -150 586
-30 57 -119 143 -183 175 -28 15 -68 38 -89 51 -30 21 -44 24 -74 18 -55 -10
-83 -32 -94 -76 -7 -24 -11 -182 -12 -402 -1 -300 2 -375 15 -437 28 -130 56
-225 87 -303 17 -42 33 -91 37 -109 3 -18 12 -42 19 -53 7 -11 20 -51 29 -90
10 -38 20 -74 24 -80 3 -5 14 -41 23 -80 35 -149 50 -199 64 -228 9 -16 17
-39 18 -51 2 -11 8 -34 15 -49 6 -16 16 -50 22 -75 6 -26 15 -56 19 -67 5 -11
16 -46 25 -77 9 -32 21 -60 26 -64 5 -3 7 -9 4 -14 -3 -4 2 -25 11 -46 17 -40
57 -187 89 -329 10 -44 24 -92 32 -107 7 -15 13 -38 13 -51 0 -12 4 -27 9 -33
26 -26 71 -272 66 -351 -1 -18 -3 -43 -4 -56 -2 -39 -23 -57 -74 -63 -64 -8
-135 16 -217 74 -36 25 -101 70 -145 100 -300 205 -419 324 -551 553 -98 171
-190 347 -199 379 -6 24 -5 24 22 -6 32 -36 102 -132 147 -204 17 -27 60 -82
95 -122 35 -40 71 -82 81 -93 62 -72 184 -176 236 -201 67 -33 167 -41 197
-15 21 16 22 76 3 111 -56 104 -67 125 -78 137 -26 32 -88 187 -78 197 26 26
-2 127 -51 179 -10 12 -19 31 -19 43 0 12 -7 27 -15 34 -8 7 -17 28 -21 49 -4
20 -10 41 -14 46 -4 6 -15 33 -25 60 -23 66 -27 76 -69 166 -19 41 -42 98 -51
125 -10 27 -30 75 -46 107 -16 32 -27 62 -25 65 4 7 -32 144 -68 262 -8 25
-40 131 -70 235 -31 105 -63 210 -71 235 -8 25 -24 88 -36 140 -26 119 -40
178 -72 310 -14 58 -30 130 -36 160 -6 30 -17 89 -25 130 -41 214 -47 273 -70
665 -9 153 -16 217 -26 250 -5 17 -17 61 -26 99 -15 66 -41 105 -71 106 -7 0
-15 -21 -18 -47 -7 -50 -78 -322 -100 -383 -7 -19 -23 -69 -35 -110 -11 -41
-37 -124 -56 -185 -18 -60 -41 -147 -50 -192 -9 -46 -20 -83 -25 -83 -7 0 -5
104 6 249 4 58 2 66 -20 86 -23 22 -23 25 -12 88 10 60 9 68 -8 87 -18 20 -18
23 8 128 15 59 38 162 52 230 14 68 37 169 51 225 39 155 41 259 10 468 -31
212 -32 228 -8 224 9 -1 12 0 6 2 -21 7 -36 93 -47 263 -15 235 -13 286 16
460 15 85 31 205 37 265 23 226 63 406 123 550 19 44 42 105 50 136 9 31 24
69 32 85 8 16 15 37 15 46 0 9 11 43 24 75 13 32 34 85 46 118 13 33 41 98 63
145 51 110 49 107 82 165 15 28 47 86 70 130 24 44 66 120 94 168 28 49 51 91
51 93 0 3 18 32 40 65 22 33 40 64 40 67 0 10 150 154 236 227 220 187 366
287 503 345 117 50 282 58 407 21z m-1969 -5243 c-3 -8 -6 -5 -6 6 -1 11 2 17
5 13 3 -3 4 -12 1 -19z"/>
<path d="M3085 11311 c-88 -41 -219 -187 -282 -312 -20 -41 -24 -59 -19 -94 6
-35 12 -44 32 -49 34 -9 121 18 234 73 121 59 184 111 241 200 37 58 40 136 7
181 -20 28 -26 30 -87 30 -52 0 -79 -6 -126 -29z m176 -51 c10 -6 19 -21 19
-34 0 -39 -144 -172 -174 -160 -7 3 -18 25 -25 49 -7 25 -22 56 -32 69 -11 13
-19 27 -19 31 0 3 24 17 53 30 56 27 142 33 178 15z m-233 -86 c19 -13 22 -24
22 -79 0 -74 2 -72 -114 -111 -43 -15 -72 -20 -74 -14 -5 14 -39 13 -45 -2 -3
-8 -6 -8 -6 -2 -1 10 25 42 140 177 22 26 44 47 48 47 3 0 17 -7 29 -16z"/>
<path d="M2372 10957 c-52 -16 -125 -89 -191 -191 -72 -112 -102 -182 -99
-239 1 -40 1 -40 5 -8 5 40 85 175 142 241 l39 45 31 -29 c20 -19 33 -45 41
-80 l11 -51 -47 -45 c-49 -47 -136 -112 -141 -106 -2 2 1 15 7 30 14 38 13 56
-5 56 -17 0 -55 -69 -55 -100 0 -14 -4 -19 -12 -14 -10 6 -10 4 0 -7 6 -7 12
-23 12 -36 0 -66 138 15 259 152 34 39 87 109 117 158 48 74 57 96 61 149 5
52 3 63 -12 75 -22 15 -115 16 -163 0z m135 -63 c9 -23 -27 -88 -90 -164 -10
-13 -12 -12 -15 7 -3 22 -64 83 -82 83 -6 0 -10 8 -10 18 0 47 181 98 197 56z"/>
<path d="M2618 10197 c-9 -45 -46 -192 -82 -327 -108 -404 -110 -569 -9 -742
34 -58 75 -98 99 -98 18 0 17 -10 -1 -34 -8 -11 -15 -32 -15 -48 0 -27 30 -68
50 -68 14 0 1 -24 -76 -140 -82 -125 -88 -139 -75 -174 6 -15 16 -26 23 -24 6
2 48 60 92 128 73 112 80 128 84 182 4 46 1 63 -13 78 -17 18 -16 21 24 62 37
38 41 47 35 78 -8 48 -9 49 -52 43 -83 -11 -142 43 -187 173 -44 124 -34 230
53 574 66 258 82 333 82 378 0 66 -13 49 -32 -41z"/>
<path d="M8780 11502 c0 -54 44 -367 69 -482 35 -168 53 -242 58 -237 5 6 -11
127 -42 307 -29 170 -37 226 -31 219 5 -4 42 -98 109 -272 24 -63 39 -68 48
-16 5 33 6 33 13 -16 18 -117 27 -160 36 -169 20 -20 21 28 1 186 -23 188 -39
268 -52 268 -16 0 -29 -48 -29 -108 0 -64 -9 -60 -35 13 -10 28 -22 54 -27 60
-4 5 -8 19 -8 30 0 12 -3 24 -6 28 -3 3 -23 54 -43 113 -39 115 -61 143 -61
76z"/>
<path d="M8065 10944 c-107 -21 -135 -29 -170 -46 -78 -39 -205 -165 -205
-203 0 -7 18 5 40 26 53 51 153 108 209 120 93 20 163 30 169 25 9 -10 -66
-76 -86 -76 -11 0 -24 12 -31 26 -17 37 -22 25 -10 -20 6 -21 7 -42 2 -46 -11
-10 -164 -50 -190 -50 -24 0 -33 -18 -33 -65 0 -42 13 -47 92 -30 81 17 89 21
173 77 105 71 165 136 176 192 13 68 6 76 -60 75 -31 -1 -65 -3 -76 -5z"/>
<path d="M7475 10909 c-4 -5 11 -27 33 -47 l40 -37 6 -95 c3 -52 8 -182 11
-289 3 -106 14 -289 25 -405 11 -116 24 -310 29 -430 9 -213 10 -220 33 -238
33 -27 72 -18 152 36 95 63 136 73 188 46 33 -17 43 -19 49 -8 16 24 9 54 -21
95 -26 36 -35 41 -82 46 -41 5 -61 2 -90 -13 -57 -30 -81 -44 -95 -57 -19 -17
-54 -26 -63 -16 -5 4 -13 107 -20 228 -6 121 -17 265 -25 320 -8 55 -17 138
-20 185 -3 47 -10 110 -15 140 -4 30 -9 100 -9 155 -3 263 -20 358 -70 385
-25 13 -48 13 -56 -1z"/>
<path d="M7405 10676 c-100 -32 -218 -118 -259 -189 -21 -37 -24 -52 -21 -122
2 -44 4 -88 4 -97 1 -14 9 -18 34 -18 52 0 213 102 239 150 64 125 78 163 81
223 2 71 -6 76 -78 53z m35 -77 c0 -19 -57 -113 -84 -138 -28 -27 -56 -22 -56
9 0 11 -9 29 -20 40 -11 11 -20 24 -20 28 0 13 131 72 158 72 12 0 22 -5 22
-11z m-190 -125 c28 -65 26 -82 -15 -101 -33 -16 -36 -16 -49 2 -9 12 -15 14
-20 7 -14 -22 -26 -12 -26 21 0 26 9 43 42 75 23 23 43 42 45 42 2 0 13 -21
23 -46z"/>
<path d="M5817 10214 c-23 -23 12 -161 80 -313 28 -63 63 -239 63 -315 0 -28
5 -80 10 -115 6 -35 8 -66 5 -69 -8 -8 -46 36 -70 81 -33 65 -79 112 -100 103
-16 -6 -17 -16 -12 -118 4 -63 16 -143 28 -187 22 -79 131 -311 137 -293 2 6
-2 20 -8 32 -6 11 -24 62 -40 113 -16 50 -38 117 -48 147 -22 60 -40 206 -25
197 5 -3 26 -32 48 -64 66 -98 119 -163 132 -163 27 0 26 81 -2 259 -9 54 -17
181 -11 181 25 0 96 -235 96 -317 0 -30 5 -45 15 -50 9 -3 18 -3 20 -1 3 2 16
60 31 129 26 130 52 188 40 92 -8 -61 0 -103 20 -103 10 0 14 33 16 153 3 172
1 197 -18 197 -14 0 -37 -68 -72 -209 l-18 -73 -23 68 c-12 38 -40 103 -61
144 -77 151 -92 187 -116 280 -21 84 -46 152 -73 200 -9 17 -33 24 -44 14z"/>
<path d="M3610 9921 c0 -16 14 -95 31 -177 28 -135 32 -171 35 -374 3 -139 1
-219 -4 -210 -5 8 -22 57 -37 109 -31 110 -50 151 -70 151 -20 0 -22 -37 -8
-195 21 -230 46 -406 56 -396 6 6 4 91 -5 233 -9 123 -14 224 -13 226 2 2 13
-35 25 -82 23 -87 56 -156 77 -163 20 -7 24 51 21 260 -2 108 -1 197 2 197 16
0 89 -327 90 -402 0 -41 15 -88 28 -88 4 0 34 51 65 113 57 113 83 154 91 146
3 -2 0 -53 -6 -113 -10 -106 -4 -156 21 -156 10 0 25 256 19 330 -2 31 -7 45
-17 45 -17 0 -111 -135 -143 -205 -18 -39 -22 -42 -29 -25 -4 11 -8 34 -8 50
-1 42 -39 187 -102 390 -28 94 -60 204 -70 245 -10 41 -21 85 -24 98 -8 32
-25 27 -25 -7z"/>
<path d="M4733 9143 c-6 -15 5 -256 27 -588 5 -77 12 -189 15 -250 l6 -110
-21 50 c-12 28 -26 54 -31 60 -5 5 -9 18 -9 30 0 28 -76 185 -90 185 -12 0
-13 -30 -1 -101 5 -30 12 -148 15 -264 3 -115 6 -214 7 -220 6 -38 17 115 18
233 1 79 5 141 10 138 4 -3 23 -43 41 -88 68 -173 113 -243 134 -210 2 4 -2
44 -10 89 -7 44 -25 236 -39 427 -25 342 -30 444 -20 435 7 -7 61 -276 79
-389 8 -52 22 -169 31 -260 10 -100 22 -170 30 -178 14 -16 10 -21 105 124 52
78 99 128 149 159 11 6 12 2 7 -21 -4 -15 -16 -46 -26 -69 -10 -22 -32 -71
-50 -110 -29 -66 -54 -132 -101 -267 -23 -69 -25 -114 -4 -122 9 -3 17 0 19 7
28 107 76 236 141 382 47 104 65 163 67 220 2 35 0 66 -4 70 -4 4 -28 -4 -54
-16 -72 -36 -139 -108 -194 -206 -13 -24 -27 -43 -31 -43 -8 0 -15 49 -29 210
-15 170 -75 482 -118 615 -25 78 -56 113 -69 78z"/>
<path d="M9800 8889 c-12 -21 -11 -32 20 -279 14 -106 31 -343 25 -348 -2 -3
-23 34 -45 82 -46 97 -66 106 -64 30 1 -60 30 -376 49 -534 l14 -115 -4 180
c-3 99 -8 218 -11 265 -7 90 3 99 26 26 18 -57 64 -131 81 -131 17 0 18 68 1
230 -6 61 -13 155 -16 210 l-4 100 20 -50 c31 -75 88 -298 102 -398 7 -48 12
-148 11 -222 -3 -125 -1 -135 15 -135 15 0 20 11 25 53 9 69 -1 334 -14 383
-5 22 -15 66 -21 99 -13 65 -13 66 -56 200 -16 50 -31 92 -34 95 -6 5 -59 152
-67 185 -3 11 -9 37 -14 58 -11 42 -23 47 -39 16z"/>
<path d="M785 8230 c-28 -30 -34 -89 -35 -311 0 -214 8 -286 42 -377 22 -58
34 -66 18 -11 -11 38 -18 265 -8 274 4 4 9 -20 13 -52 8 -69 40 -146 57 -141
6 2 20 36 29 75 10 40 27 89 39 110 l21 38 -7 -80 c-12 -150 -11 -203 8 -222
17 -16 19 -16 43 7 29 27 33 67 8 85 -15 11 -15 18 -5 52 7 23 12 100 12 178
0 122 -2 141 -21 171 -11 19 -25 34 -31 34 -5 0 -17 -19 -26 -42 -9 -24 -31
-72 -49 -108 -25 -50 -32 -59 -33 -40 0 14 -2 50 -5 80 -2 30 -4 91 -6 135 -2
73 -24 165 -40 165 -3 0 -14 -9 -24 -20z m22 -392 c-3 -7 -5 -2 -5 12 0 14 2
19 5 13 2 -7 2 -19 0 -25z"/>
<path d="M9486 7812 c-3 -5 -8 -175 -11 -378 -4 -327 -13 -492 -32 -644 -5
-41 -6 -43 -15 -20 -5 14 -12 81 -14 150 -3 69 -7 144 -10 168 -9 69 -28 45
-37 -44 -15 -164 -48 -372 -71 -464 -52 -200 -55 -301 -11 -308 18 -3 19 -2 3
8 -27 16 -22 59 21 210 21 74 45 167 52 207 13 73 29 89 29 28 0 -37 31 -119
50 -130 6 -4 17 -2 23 4 18 18 46 412 52 715 3 149 7 271 9 273 8 9 35 -173
66 -452 11 -99 24 -219 30 -266 14 -122 12 -203 -6 -259 -9 -26 -14 -59 -12
-71 3 -25 38 -40 38 -17 0 21 87 188 128 245 12 17 22 34 22 38 0 3 11 23 25
43 35 51 33 24 -9 -117 -34 -111 -68 -251 -80 -318 -6 -36 13 -60 32 -41 7 7
12 17 12 23 0 5 13 29 28 51 30 44 68 151 58 161 -3 3 -16 -2 -28 -13 -21 -19
-21 -19 -14 1 8 21 39 134 62 225 15 61 19 176 6 184 -21 13 -90 -73 -166
-206 -15 -27 -31 -48 -36 -48 -6 0 -10 21 -10 48 0 26 -5 76 -10 112 -5 36
-14 115 -20 175 -11 114 -16 156 -50 390 -37 248 -77 380 -104 337z"/>
<path d="M5796 7775 c-3 -13 -2 -64 3 -112 6 -49 13 -135 16 -193 4 -58 18
-163 31 -235 13 -71 31 -166 39 -210 17 -88 45 -280 45 -307 0 -31 -16 -20
-49 33 -17 28 -31 52 -31 54 0 3 -12 30 -26 60 -18 41 -30 55 -42 53 -25 -5
-20 -75 12 -178 28 -87 45 -214 47 -335 0 -38 4 -79 8 -90 11 -28 25 218 16
278 -8 52 4 62 23 19 6 -16 20 -37 30 -48 10 -11 26 -32 36 -46 11 -17 23 -25
33 -21 13 5 15 21 9 107 -4 56 -16 160 -26 231 -11 72 -27 177 -35 235 -8 58
-19 116 -24 130 -5 14 -12 50 -16 80 -3 30 -8 66 -11 80 -2 14 13 -24 34 -85
70 -198 103 -290 112 -310 23 -49 40 -151 50 -290 10 -155 16 -191 32 -212 16
-20 42 0 150 111 54 55 98 96 98 89 0 -7 -16 -76 -35 -154 -38 -155 -42 -183
-22 -177 22 8 46 72 82 226 35 152 43 226 26 236 -9 6 -49 -28 -193 -164 -79
-73 -87 -72 -88 20 -1 84 -19 238 -36 310 -14 55 -72 213 -121 327 -7 17 -13
38 -13 46 0 9 -9 36 -19 61 -11 24 -27 75 -36 113 -9 37 -21 82 -26 98 -14 51
-38 139 -44 168 -7 34 -31 35 -39 2z"/>
<path d="M4033 7351 c-25 -39 -36 -279 -31 -663 5 -412 8 -396 -47 -300 -11
17 -23 32 -27 32 -4 0 -8 6 -8 14 0 8 -4 16 -9 18 -5 2 -17 18 -28 37 -36 65
-83 69 -83 7 0 -102 77 -380 128 -465 15 -26 36 -65 46 -89 11 -23 21 -41 23
-39 4 5 -30 123 -78 267 -21 63 -43 138 -49 165 -6 28 -13 58 -16 69 -12 38
15 4 61 -77 68 -118 138 -185 158 -149 2 4 -2 72 -9 152 -15 171 -17 837 -2
730 5 -36 23 -153 40 -260 17 -107 33 -208 35 -225 10 -63 64 -361 69 -377 11
-35 30 -16 81 80 49 91 123 193 108 147 -56 -167 -75 -236 -80 -292 -7 -77 3
-105 32 -87 24 15 42 66 26 71 -7 3 -13 15 -13 28 0 31 47 176 94 287 36 88
49 178 25 178 -16 0 -159 -149 -159 -166 0 -8 -4 -14 -9 -14 -5 0 -24 -29 -42
-65 -19 -35 -37 -61 -42 -56 -8 8 -14 37 -43 211 -8 52 -19 118 -24 145 -49
291 -57 345 -70 500 -11 131 -25 205 -38 205 -4 0 -13 -9 -19 -19z"/>
<path d="M1341 5778 c-48 -150 -52 -189 -47 -410 3 -117 9 -237 12 -267 5 -39
4 -52 -5 -47 -6 4 -11 13 -11 21 0 24 -57 140 -79 159 -21 19 -21 19 -22 0 -7
-98 29 -240 91 -364 22 -43 44 -81 49 -84 5 -3 15 2 22 12 13 15 12 16 -3 4
-21 -16 -20 -18 -58 112 -32 112 -34 144 -5 82 20 -41 62 -79 77 -70 10 6 8
65 -8 314 -8 127 -5 365 5 390 5 14 10 21 10 15 1 -5 13 -98 27 -205 31 -234
66 -385 96 -417 27 -29 48 -29 49 0 1 61 11 133 19 141 5 5 11 -8 15 -30 13
-77 25 -111 46 -130 30 -27 39 -4 23 66 -8 32 -18 104 -23 159 -6 75 -13 106
-26 121 -10 11 -21 20 -25 20 -9 0 -43 -78 -61 -138 -7 -23 -16 -39 -20 -35
-4 4 -24 123 -43 263 -46 326 -43 311 -63 332 -23 25 -30 23 -42 -14z"/>
<path d="M6280 5543 c0 -16 7 -53 15 -83 15 -57 40 -462 33 -535 l-4 -40 -8
43 c-7 31 -13 42 -27 42 -23 0 -24 -27 -5 -125 8 -38 17 -158 21 -265 6 -198
24 -362 50 -480 l15 -65 -5 115 c-3 63 -7 142 -10 175 -4 56 -4 57 6 20 25
-102 31 -115 44 -115 20 0 19 36 -5 205 -11 77 -22 217 -25 310 -3 94 -7 226
-10 295 -2 69 0 118 4 110 13 -24 59 -263 77 -405 12 -95 15 -170 11 -281 -3
-83 -2 -157 3 -164 8 -14 32 19 81 110 36 67 133 204 136 193 2 -6 -8 -55 -22
-109 -50 -191 -70 -351 -42 -342 6 3 18 38 25 79 7 41 31 149 52 241 42 177
50 258 26 258 -13 0 -119 -141 -182 -242 -16 -26 -32 -47 -35 -48 -3 0 -5 24
-4 53 6 134 -56 558 -110 753 -8 28 -26 105 -40 170 -33 151 -34 154 -51 154
-9 0 -14 -10 -14 -27z"/>
<path d="M4795 5459 c-8 -35 -1 -148 20 -314 8 -60 19 -198 25 -305 5 -107 13
-224 16 -259 10 -100 -15 -64 -87 124 -23 60 -38 80 -51 67 -10 -11 9 -597 22
-681 7 -41 10 -91 7 -112 -6 -44 7 -72 24 -49 7 10 8 62 4 155 -10 203 -11
445 -3 445 4 0 11 -12 14 -27 4 -16 15 -41 25 -58 10 -16 28 -49 40 -72 30
-56 93 -139 104 -136 17 4 17 73 2 122 -37 116 -58 266 -72 506 -3 55 -8 129
-11 165 -4 42 -3 61 3 55 10 -10 34 -118 72 -315 11 -58 30 -152 42 -210 30
-149 39 -204 47 -295 9 -105 22 -107 86 -13 69 101 149 203 153 192 2 -5 -15
-72 -38 -149 -68 -233 -79 -277 -79 -316 0 -42 13 -55 50 -50 32 4 50 19 50
42 0 14 -7 19 -30 19 -16 0 -30 3 -30 8 0 7 33 123 95 332 41 140 55 233 35
245 -20 12 -129 -111 -220 -247 -26 -39 -40 -41 -40 -3 0 34 -107 578 -165
840 -8 39 -22 102 -30 141 -20 92 -49 177 -62 181 -6 2 -14 -10 -18 -28z"/>
<path d="M7896 4072 c-3 -5 -12 -106 -21 -223 -8 -118 -26 -286 -39 -374 -38
-246 -39 -248 -51 -120 -8 87 -13 110 -25 110 -12 0 -18 -24 -28 -105 -6 -58
-17 -141 -22 -185 -6 -48 -30 -137 -60 -222 -27 -79 -46 -143 -42 -143 4 0 28
44 54 98 48 98 77 184 79 231 0 24 1 24 9 6 5 -11 9 -36 9 -56 1 -20 8 -42 16
-49 12 -10 16 -8 25 15 29 75 87 448 102 653 6 89 15 162 20 162 4 0 8 -3 8
-6 0 -5 31 -227 61 -429 6 -44 14 -136 18 -205 5 -100 9 -125 21 -128 11 -2
20 11 28 41 18 60 61 151 68 144 4 -3 -1 -27 -10 -53 -17 -52 -22 -139 -7
-149 17 -10 41 39 41 85 1 25 8 63 16 85 42 113 56 233 28 242 -12 4 -89 -115
-119 -184 -10 -24 -22 -43 -27 -43 -4 0 -8 22 -8 50 0 27 -4 71 -9 97 -5 26
-14 82 -20 123 -10 71 -67 425 -80 499 -6 34 -24 51 -35 33z"/>
<path d="M6371 4004 c0 -11 3 -14 6 -6 3 7 2 16 -1 19 -3 4 -6 -2 -5 -13z"/>
<path d="M5339 3363 c-3 -20 4 -53 22 -106 11 -32 36 -145 55 -250 30 -156 37
-224 41 -362 7 -223 3 -243 -25 -125 -29 124 -70 230 -88 230 -8 0 -14 -8 -14
-17 1 -58 96 -652 106 -662 12 -13 1 138 -21 276 -31 196 -31 224 1 109 29
-108 45 -141 64 -141 13 0 15 33 14 230 0 216 -2 240 -32 397 -47 243 -43 247
29 38 26 -78 78 -204 115 -281 36 -76 74 -165 83 -196 9 -32 23 -58 30 -58 7
0 27 27 44 60 26 49 154 192 163 182 2 -2 -3 -27 -12 -57 -46 -174 -77 -361
-67 -412 7 -35 35 -37 57 -6 21 29 20 58 0 58 -13 0 -15 8 -9 53 4 28 10 66
15 82 56 203 75 344 50 369 -12 12 -108 -53 -152 -103 -62 -70 -78 -91 -78
-101 0 -19 -20 -10 -29 13 -5 12 -38 83 -74 157 -35 74 -88 203 -116 286 -79
230 -131 344 -158 344 -7 0 -14 -3 -14 -7z"/>
<path d="M3776 3018 c-24 -37 -36 -132 -36 -277 0 -82 -4 -131 -9 -125 -5 5
-26 63 -47 129 -48 156 -81 225 -105 225 -17 0 -19 -9 -19 -97 0 -154 43 -382
92 -489 l23 -49 3 33 c2 19 -4 44 -12 57 -35 54 -99 480 -69 462 6 -4 34 -78
62 -164 59 -181 80 -228 101 -228 13 0 16 32 20 207 6 234 17 274 43 153 16
-73 79 -247 99 -272 18 -23 28 -14 28 27 0 32 8 48 43 88 39 45 117 112 130
112 3 0 -12 -40 -33 -88 -43 -100 -75 -238 -65 -283 11 -47 29 -28 37 38 9 83
50 200 109 312 27 52 49 102 49 113 0 31 -27 32 -67 2 -129 -95 -181 -139
-207 -174 -16 -21 -33 -37 -37 -34 -12 7 -51 132 -74 238 -12 55 -26 101 -32
103 -7 3 -18 -6 -27 -19z"/>
<path d="M7705 2250 c-3 -5 1 -33 10 -62 8 -28 15 -63 15 -77 -1 -25 -3 -24
-45 22 -47 51 -52 53 -79 34 -18 -13 -17 -17 10 -101 21 -64 32 -86 44 -84 16
4 18 25 5 73 l-8 30 30 -27 c16 -16 36 -28 44 -28 27 0 42 44 36 99 -12 102
-40 156 -62 121z"/>
<path d="M7535 2120 c-6 -10 0 -73 11 -112 10 -33 -15 -18 -47 28 l-31 46 -26
-25 -25 -26 28 -90 c16 -50 32 -91 36 -91 3 0 12 6 18 14 8 10 7 24 -4 56 -8
24 -13 45 -10 48 3 3 18 -7 33 -21 32 -31 44 -33 63 -11 10 13 10 29 0 91 -7
42 -15 82 -18 90 -6 16 -19 17 -28 3z"/>
<path d="M7351 2022 c-6 -10 -8 -28 -5 -40 3 -11 2 -27 -3 -36 -7 -14 -14 -12
-45 14 -34 28 -68 32 -68 8 0 -12 90 -98 102 -98 5 0 17 -20 28 -45 35 -82 65
-46 31 38 -19 45 -21 62 -13 110 5 31 7 59 4 62 -10 10 -21 5 -31 -13z"/>
<path d="M7115 1856 c-41 -18 -70 -52 -54 -62 7 -4 19 1 29 14 15 19 36 26 68
23 19 -2 15 -84 -8 -148 -11 -32 -20 -61 -20 -65 0 -8 131 73 163 100 36 31 7
22 -54 -17 -35 -22 -65 -38 -67 -36 -2 1 3 18 11 37 36 87 29 168 -15 168 -13
-1 -36 -7 -53 -14z"/>
<path d="M6897 1763 c-14 -13 -6 -23 34 -43 32 -17 44 -19 55 -9 21 17 18 24
-21 42 -38 18 -58 21 -68 10z"/>
<path d="M6925 1609 c-9 -14 -5 -17 55 -39 40 -15 57 -17 67 -9 22 19 15 26
-34 43 -54 19 -79 20 -88 5z"/>
</g>
</svg>
