<?xml version="1.0" standalone="no"?>
<!DOCTYPE svg PUBLIC "-//W3C//DTD SVG 20010904//EN"
 "http://www.w3.org/TR/2001/REC-SVG-20010904/DTD/svg10.dtd">
<svg id="avatar" data-name="avatar" xmlns="http://www.w3.org/2000/svg" viewBox="0 0 192 192" preserveAspectRatio="xMidYMid meet">

<g transform="translate(0.000000,192.000000) scale(0.100000,-0.100000)"
fill="#000000" stroke="none">
<path d="M1135 1656 c-76 -35 -192 -132 -383 -320 -193 -190 -262 -273 -262
-316 0 -40 53 -83 214 -175 120 -68 136 -80 130 -99 -3 -11 -37 -100 -74 -196
-73 -189 -88 -247 -70 -279 17 -32 76 -28 131 8 81 54 236 189 378 331 159
158 231 248 231 290 0 40 -62 92 -205 171 -64 35 -123 69 -131 75 -14 9 -11
23 26 120 72 185 120 328 120 356 0 28 -23 58 -43 58 -7 0 -34 -11 -62 -24z"/>
</g>
</svg>
